<?xml version="1.0" encoding="utf-8"?>
<svg xmlns="http://www.w3.org/2000/svg" id="Layer_1" style="enable-background:new 0 0 300 227.3" version="1.1" viewBox="0 0 300 227.3" x="0" y="0">
  <g>
    <path d="M216.8,51.9c-13.3,0-24.4,9.2-27.4,21.5c-11.7-10.1-27-16.2-43.7-16.2&#xA;		c-37.1,0-67.1,30-67.1,67.1c0,3.8,0.3,7.6,0.9,11.2c-1.2-0.2-2.5-0.4-3.8-0.4c-11.3,0-20.4,9.1-20.4,20.4&#xA;		c0,11.3,9.1,20.4,20.4,20.4c7.4,0,13.9-3.9,17.4-9.8c12.3,15.4,31.2,25.3,52.5,25.3c37.1,0,67.1-30,67.1-67.1&#xA;		c0-5.8-0.7-11.3-2.1-16.7c2,0.4,4,0.7,6.1,0.7c15.6,0,28.2-12.6,28.2-28.2C245.1,64.5,232.4,51.9,216.8,51.9z" id="XMLID_2197_" style="fill:#bbc2ff"/>
    <line id="XMLID_1262_" style="fill:none;stroke:#000;stroke-width:.5846;stroke-linecap:round;stroke-linejoin:round;stroke-miterlimit:10" x1="20.2" x2="279.8" y1="206.9" y2="206.9"/>
    <g id="XMLID_1489_">
      <rect height="134.8" id="XMLID_1456_" width="7.3" x="146.3" y="20.4"/>
      <path d="M26.4,20.4v135h246.7v-135H26.4z M265.7,148.1H33.7V28h232.1V148.1z" id="XMLID_1432_"/>
      <g id="XMLID_1485_">
        <line id="XMLID_1458_" style="fill:none;stroke:#000;stroke-width:.2923;stroke-linecap:round;stroke-miterlimit:10" x1="178.5" x2="224.5" y1="58.8" y2="126.2"/>
        <line id="XMLID_1484_" style="fill:none;stroke:#000;stroke-width:.2923;stroke-linecap:round;stroke-miterlimit:10" x1="212.1" x2="244.9" y1="57" y2="105.1"/>
      </g>
      <g id="XMLID_1486_">
        <line id="XMLID_1488_" style="fill:none;stroke:#000;stroke-width:.2923;stroke-linecap:round;stroke-miterlimit:10" x1="51.9" x2="97.9" y1="58.8" y2="126.2"/>
        <line id="XMLID_1487_" style="fill:none;stroke:#000;stroke-width:.2923;stroke-linecap:round;stroke-miterlimit:10" x1="85.5" x2="118.3" y1="57" y2="105.1"/>
      </g>
    </g>
    <g id="XMLID_953_">
      <g id="XMLID_952_">
        <polygon id="XMLID_1034_" points="33.7 91.1 49.7 91.1 48.8 87.7 33.7 87.7" style="fill:#5258ef"/>
        <polygon id="XMLID_1035_" points="41.2 98.6 46.9 98.6 46.1 91.1 40.4 91.1" style="fill:#5258ef"/>
        <polygon id="XMLID_1037_" points="37.4 100.1 34.5 100.1 37.5 91.1 40.4 91.1" style="fill:#5258ef"/>
        <path d="M41,98.6h7.5c0.7,0,1.2,0.4,1.5,1l8.1,20.2c1.3,3.1-1.1,6.6-4.4,6.6H42.4&#xA;				c-2.8,0-5-2.4-4.8-5.2l1.8-21.1C39.5,99.2,40.1,98.6,41,98.6z" id="XMLID_1017_" style="fill:#fff;stroke:#000;stroke-width:.2923;stroke-linecap:round;stroke-linejoin:round;stroke-miterlimit:10"/>
      </g>
      <rect height="16.2" id="XMLID_951_" transform="rotate(-90 43.22 93.75)" width="5.3" x="40.6" y="85.6"/>
      <g id="XMLID_1015_">
        <path d="M256.3,60.6l-35.1-17.9c-0.6-0.3-0.8-1-0.5-1.6l3.7-7.2c0.3-0.6,1-0.8,1.6-0.5L261,51.3&#xA;				c0.6,0.3,0.8,1,0.5,1.6l-3.7,7.2C257.6,60.7,256.9,60.9,256.3,60.6z" id="XMLID_1243_" style="fill:#fff;stroke:#000;stroke-width:.2923;stroke-linecap:round;stroke-linejoin:round;stroke-miterlimit:10"/>
        <path d="M208.5,111.5l-0.5-0.3c-1-0.5-1.4-1.8-0.9-2.8l31-60.6c0.5-1,1.8-1.4,2.8-0.9l0.5,0.3&#xA;				c1,0.5,1.4,1.8,0.9,2.8l-31,60.6C210.7,111.6,209.5,112,208.5,111.5z" id="XMLID_1244_"/>
        <path d="M234.1,66.1l-4.4-2.2c-0.3-0.1-0.4-0.5-0.3-0.8l2.5-4.9c0.1-0.3,0.5-0.4,0.8-0.3l4.4,2.2&#xA;				c0.3,0.1,0.4,0.5,0.3,0.8l-2.5,4.9C234.7,66.2,234.4,66.3,234.1,66.1z" id="XMLID_1503_" style="fill:#fff;stroke:#000;stroke-width:.2923;stroke-linecap:round;stroke-linejoin:round;stroke-miterlimit:10"/>
      </g>
      <g id="XMLID_1150_">
        <rect height="7.5" id="XMLID_1016_" width="26.2" x="168.9" y="136.9"/>
        <path d="M191.4,143.1l2.3,1.1c4.8,2.3,10.5,0.4,12.9-4.4l17.5-35.4c2.3-4.8,0.4-10.5-4.4-12.9&#xA;				l-2.3-1.1c-4.8-2.3-10.5-0.4-12.9,4.4l-17.5,35.4C184.7,135,186.7,140.8,191.4,143.1z" id="XMLID_1114_" style="fill:#fff;stroke:#000;stroke-width:.2923;stroke-linecap:round;stroke-linejoin:round;stroke-miterlimit:10"/>
      </g>
      <g id="XMLID_1152_">
        <rect height="7.5" id="XMLID_1156_" transform="rotate(-180 88.28 140.657)" width="26.2" x="75.2" y="136.9"/>
        <path d="M78.8,143.1l-2.3,1.1c-4.8,2.3-10.5,0.4-12.9-4.4l-17.5-35.4c-2.3-4.8-0.4-10.5,4.4-12.9&#xA;				l2.3-1.1c4.8-2.3,10.5-0.4,12.9,4.4l17.5,35.4C85.5,135,83.5,140.8,78.8,143.1z" id="XMLID_1153_" style="fill:#fff;stroke:#000;stroke-width:.2923;stroke-linecap:round;stroke-linejoin:round;stroke-miterlimit:10"/>
      </g>
      <g id="XMLID_1158_">
        <line id="XMLID_1400_" style="fill:none;stroke:#000;stroke-width:.2923;stroke-linecap:round;stroke-linejoin:round;stroke-miterlimit:10" x1="135.2" x2="135.2" y1="71" y2="30.1"/>
        <path d="M168.7,110.6c-10.1,11.6-56.9,11.6-67,0c-6.2-7.1,1.5-31.3,8.7-37.4&#xA;				c9.7-8.3,40.5-8.4,50.1,0C167.6,79.4,174.9,103.5,168.7,110.6z" id="XMLID_1399_" style="fill:#fff;stroke:#000;stroke-width:.2923;stroke-linecap:round;stroke-linejoin:round;stroke-miterlimit:10"/>
        <path d="M168.7,133.9c-10.1-16.2-56.9-16.2-67,0c-6.2,10,1.5,43.9,8.7,52.5&#xA;				c9.7,11.6,40.5,11.8,50.1,0C167.6,177.7,174.9,143.9,168.7,133.9z" id="XMLID_1398_" style="fill:#fff;stroke:#000;stroke-width:.2923;stroke-linecap:round;stroke-linejoin:round;stroke-miterlimit:10"/>
        <path d="M119.5,137.7c-2.9,4.7,0.7,20.5,4.1,24.5c4.5,5.4,18.9,5.5,23.4,0&#xA;				c3.3-4.1,6.7-19.9,3.8-24.5" id="XMLID_1397_" style="fill:none;stroke:#000;stroke-width:.2923;stroke-linecap:round;stroke-linejoin:round;stroke-miterlimit:10"/>
        <path d="M120.6,68.6c0.9,2.7,1.9,5,2.9,6.3c4.5,5.4,18.9,5.5,23.4,0c1-1.2,2-3.6,2.9-6.4" id="XMLID_1170_" style="fill:none;stroke:#000;stroke-width:.2923;stroke-linecap:round;stroke-linejoin:round;stroke-miterlimit:10"/>
        <path d="M115.3,190.4c-3.7-3.8,0.9-16.9,5.2-20.2c5.8-4.5,24.1-4.5,29.8,0&#xA;				c4.2,3.4,8.6,16.4,4.9,20.2" id="XMLID_1169_" style="fill:none;stroke:#000;stroke-width:.2923;stroke-linecap:round;stroke-linejoin:round;stroke-miterlimit:10"/>
        <path d="M115.3,116.7c-3.7-3.8,0.9-16.9,5.2-20.2c5.8-4.5,24.1-4.5,29.8,0&#xA;				c4.2,3.4,8.6,16.4,4.9,20.2" id="XMLID_1168_" style="fill:none;stroke:#000;stroke-width:.2923;stroke-linecap:round;stroke-linejoin:round;stroke-miterlimit:10"/>
        <path d="M166,130.7c-12.8,11.9-48.8,11.9-61.6,0" id="XMLID_1167_" style="fill:none;stroke:#000;stroke-width:.2923;stroke-linecap:round;stroke-linejoin:round;stroke-miterlimit:10"/>
        <g id="XMLID_1160_">
          <g id="XMLID_1164_">
            <ellipse cx="168.3" cy="86.4" id="XMLID_1166_" rx="6.5" ry="8.4" style="fill:#5258ef" transform="rotate(-19.276 168.28 86.395)"/>
            <path d="M162.9,80c3.1-1.1,6.6,1.2,8,5.2s0,8-3,9" id="XMLID_1165_" style="fill:none;stroke:#000;stroke-width:.2923;stroke-linecap:round;stroke-linejoin:round;stroke-miterlimit:10"/>
          </g>
          <g id="XMLID_1161_">
            <ellipse cx="102.3" cy="86.4" id="XMLID_1163_" rx="8.4" ry="6.5" style="fill:#5258ef" transform="rotate(-70.724 102.31 86.391)"/>
            <path d="M107.6,80c-3.1-1.1-6.6,1.2-8,5.2s0,8,3,9" id="XMLID_1162_" style="fill:none;stroke:#000;stroke-width:.2923;stroke-linecap:round;stroke-linejoin:round;stroke-miterlimit:10"/>
          </g>
        </g>
        <circle cx="135" cy="30.7" id="XMLID_1159_" r="2.7" style="fill:#5258ef"/>
      </g>
    </g>
    <g id="XMLID_997_">
      <path d="M227.1,201c-16.3,0-29.6-13.2-29.6-29.6c0-11,6-20.6,14.9-25.7c-0.6-1.8-2-4.7-5.6-7.5&#xA;			c0,0,6.1-0.1,11.9,4.8c2.6-0.8,5.4-1.2,8.3-1.2c16.3,0,29.6,13.2,29.6,29.6S243.4,201,227.1,201z" id="XMLID_2519_"/>
      <g id="XMLID_969_">
        <path d="M216.9,170.2l-2.6,11.7c-0.1,0.6,0.3,1.3,1,1.3h5.7l1.9-7.6v7.6h12.6l1-4.2v4.2h2.3&#xA;				c0.6,0,1-0.5,1-1v-11.9H216.9z" id="XMLID_972_" style="fill:#5258ef"/>
        <path d="M229.5,156.2h-2.2c-1.1,0-1.9,0.9-1.9,1.9v5.1h6.1v-5.1C231.4,157,230.6,156.2,229.5,156.2&#xA;				z" id="XMLID_967_" style="fill:#fff"/>
        <path d="M236.5,162.7h-16.2c-1.8,0-3.3,1.5-3.3,3.3v4.2h22.9v-4.2&#xA;				C239.9,164.2,238.4,162.7,236.5,162.7z" id="XMLID_968_" style="fill:#fff"/>
      </g>
      <polygon id="XMLID_994_" points="242.4 164.5 242.9 166 243.7 166.5 242.9 167 242.4 168.5 242 167 241.2 166.5 242 166" style="fill:#fff"/>
      <polygon id="XMLID_996_" points="213.1 171 213.5 172.3 214.2 172.7 213.5 173.1 213.1 174.5 212.7 173.1 211.9 172.7 212.7 172.3" style="fill:#fff"/>
      <polygon id="XMLID_995_" points="239.5 173.9 240.3 176.4 241.7 177.2 240.3 177.9 239.5 180.5 238.8 177.9 237.4 177.2 238.8 176.4" style="fill:#fff"/>
    </g>
  </g>
</svg>